# xmcd
#
# Track frame offsets:
#	150
#	18255
#	36337
#
# Disc length: 768 seconds
#
# Revision: 0
# Processed by: cddbd v1.4PL0 Copyright (c) Steve Scherf et al.
# Submitted via: EasyCDDAExtractor 5.0.2.1
#
DISCID=1b02fe03
DTITLE=3 of Hearts - The Christmas Shoes
DYEAR=2000
DGENRE=country
TTITLE0=The Christmas Shoes
TTITLE1=The Christmas Shoes
TTITLE2=The Christmas Shoes
EXTD=
EXTT0=
EXTT1=
EXTT2=
PLAYORDER=
